# xmcd
# 
# Track frame offsets:
#     150
#     2572
#     16920
#     35177
#     51585
#     70092
#     87842
#     107930
#     127482
#     146355
#     163775
#     181925
#     198415
# 
# Disc length: 2871
# 
# Revision: 16
# Processed by: cddbd v1.5.2PL0 Copyright (c) Steve Scherf et al.
# Submitted via: fre:ac v1.1beta1pre3
# 
DISCID=ba0b350d
DTITLE=Various Artist - THAT'S MINE
DYEAR=2005
DGENRE=Pop
TTITLE0=陳小春 - OVERTURE
TTITLE1=陳小春 - 下崗一枝花
TTITLE2=陳小春 - 丟
TTITLE3=陳小春 - 下半輩子
TTITLE4=陳小春 - 尷尬了
TTITLE5=陳小春 - 我在乎
TTITLE6=陳小春 - 該我的愛
TTITLE7=陳小春 - HERO
TTITLE8=陳小春 - 作夢
TTITLE9=陳小春 - 古墓愛情
TTITLE10=陳小春 - 家庭計畫
TTITLE11=陳小春 - 不歡而散
TTITLE12=陳小春 - 一句到尾
EXTD=NONE
EXTT0=
EXTT1=
EXTT2=
EXTT3=
EXTT4=
EXTT5=
EXTT6=
EXTT7=
EXTT8=
EXTT9=
EXTT10=
EXTT11=
EXTT12=
PLAYORDER=
